<?xml version="1.0" encoding="utf-8"?>
<!-- Generator: Adobe Illustrator 16.0.0, SVG Export Plug-In . SVG Version: 6.00 Build 0)  -->
<!DOCTYPE svg PUBLIC "-//W3C//DTD SVG 1.1//EN" "http://www.w3.org/Graphics/SVG/1.1/DTD/svg11.dtd">
<svg version="1.1" id="Layer_1" xmlns="http://www.w3.org/2000/svg" xmlns:xlink="http://www.w3.org/1999/xlink" x="0px" y="0px"
	 width="30px" height="30px" viewBox="0 0 30 30" enable-background="new 0 0 30 30" xml:space="preserve">
<g>
	<path fill="#8C8C8C" d="M28.705,7.506l-5.461-6.333l-1.08-1.254H9.262c-1.732,0-3.133,1.403-3.133,3.136V8.04h1.942L8.07,3.818
		c0.002-0.975,0.786-1.764,1.758-1.764l11.033-0.01v5.228c0.002,1.947,1.576,3.523,3.525,3.523h3.816l-0.188,15.081
		c-0.004,0.97-0.791,1.753-1.761,1.761l-16.57-0.008c-0.887,0-1.601-0.87-1.605-1.941V24.41H6.138v1.904
		c0,1.912,1.282,3.468,2.856,3.468l17.831-0.005c1.731,0,3.137-1.409,3.137-3.139V8.966L28.705,7.506"/>
	<path fill="#08743B" d="M17.5,24.545H0V7.831h17.5V24.545 M1.682,22.861h14.134V9.513H1.682"/>
	<polyline fill="#08743B" points="13.647,20.592 10.683,20.592 8.659,17.732 6.535,20.592 3.557,20.592 7.251,15.945 4.268,11.881 
		7.276,11.881 8.672,14.091 10.161,11.881 13.222,11.881 10.094,15.945 13.647,20.592 	"/>
</g>
<path fill="#08743B" d="M25.816,20.417h-1.379v-6.252c0-0.152-0.123-0.274-0.274-0.274h-3.026c-0.148,0-0.273,0.122-0.273,0.274
	v6.252h-1.377c-0.2,0-0.365,0.163-0.365,0.365c0,0,3.396,3.768,3.597,3.768l3.466-3.768C26.184,20.58,26.018,20.417,25.816,20.417z"
	/>
</svg>
